<mxfile host="65bd71144e">
    <diagram id="fMCljZ-00V7Zb-hhHP1J" name="Page-1">
        <mxGraphModel dx="1138" dy="409" grid="1" gridSize="10" guides="1" tooltips="1" connect="1" arrows="1" fold="1" page="1" pageScale="1" pageWidth="827" pageHeight="1169" math="0" shadow="0">
            <root>
                <mxCell id="0"/>
                <mxCell id="1" parent="0"/>
                <mxCell id="9Ke1NxLbtCCt8Ny00CKA-14" value="1" style="edgeStyle=orthogonalEdgeStyle;rounded=0;orthogonalLoop=1;jettySize=auto;html=1;exitX=1;exitY=0.5;exitDx=0;exitDy=0;entryX=0;entryY=0.5;entryDx=0;entryDy=0;endArrow=none;endFill=0;" parent="1" source="9Ke1NxLbtCCt8Ny00CKA-1" target="9Ke1NxLbtCCt8Ny00CKA-3" edge="1">
                    <mxGeometry relative="1" as="geometry"/>
                </mxCell>
                <mxCell id="9Ke1NxLbtCCt8Ny00CKA-1" value="votes" style="rhombus;whiteSpace=wrap;html=1;" parent="1" vertex="1">
                    <mxGeometry x="710" y="460" width="190" height="80" as="geometry"/>
                </mxCell>
                <mxCell id="9Ke1NxLbtCCt8Ny00CKA-11" style="edgeStyle=orthogonalEdgeStyle;rounded=0;orthogonalLoop=1;jettySize=auto;html=1;endArrow=none;endFill=0;" parent="1" source="9Ke1NxLbtCCt8Ny00CKA-2" target="9Ke1NxLbtCCt8Ny00CKA-8" edge="1">
                    <mxGeometry relative="1" as="geometry"/>
                </mxCell>
                <mxCell id="9Ke1NxLbtCCt8Ny00CKA-2" value="User" style="rounded=0;whiteSpace=wrap;html=1;" parent="1" vertex="1">
                    <mxGeometry x="490" y="480" width="120" height="60" as="geometry"/>
                </mxCell>
                <mxCell id="9Ke1NxLbtCCt8Ny00CKA-3" value="icecreams" style="rounded=0;whiteSpace=wrap;html=1;" parent="1" vertex="1">
                    <mxGeometry x="980" y="470" width="120" height="60" as="geometry"/>
                </mxCell>
                <mxCell id="9Ke1NxLbtCCt8Ny00CKA-15" style="edgeStyle=orthogonalEdgeStyle;rounded=0;orthogonalLoop=1;jettySize=auto;html=1;exitX=0.5;exitY=1;exitDx=0;exitDy=0;entryX=0.5;entryY=0;entryDx=0;entryDy=0;endArrow=none;endFill=0;" parent="1" source="9Ke1NxLbtCCt8Ny00CKA-4" target="9Ke1NxLbtCCt8Ny00CKA-3" edge="1">
                    <mxGeometry relative="1" as="geometry"/>
                </mxCell>
                <mxCell id="9Ke1NxLbtCCt8Ny00CKA-4" value="icecream_id" style="ellipse;whiteSpace=wrap;html=1;" parent="1" vertex="1">
                    <mxGeometry x="980" y="310" width="120" height="80" as="geometry"/>
                </mxCell>
                <mxCell id="9Ke1NxLbtCCt8Ny00CKA-12" style="edgeStyle=orthogonalEdgeStyle;rounded=0;orthogonalLoop=1;jettySize=auto;html=1;entryX=0.5;entryY=0;entryDx=0;entryDy=0;endArrow=none;endFill=0;" parent="1" source="9Ke1NxLbtCCt8Ny00CKA-5" target="9Ke1NxLbtCCt8Ny00CKA-2" edge="1">
                    <mxGeometry relative="1" as="geometry"/>
                </mxCell>
                <mxCell id="9Ke1NxLbtCCt8Ny00CKA-5" value="user_id" style="ellipse;whiteSpace=wrap;html=1;" parent="1" vertex="1">
                    <mxGeometry x="490" y="340" width="120" height="80" as="geometry"/>
                </mxCell>
                <mxCell id="9Ke1NxLbtCCt8Ny00CKA-16" style="edgeStyle=orthogonalEdgeStyle;rounded=0;orthogonalLoop=1;jettySize=auto;html=1;exitX=0;exitY=0.5;exitDx=0;exitDy=0;entryX=1;entryY=0;entryDx=0;entryDy=0;endArrow=none;endFill=0;" parent="1" source="9Ke1NxLbtCCt8Ny00CKA-6" target="9Ke1NxLbtCCt8Ny00CKA-3" edge="1">
                    <mxGeometry relative="1" as="geometry"/>
                </mxCell>
                <mxCell id="9Ke1NxLbtCCt8Ny00CKA-6" value="flavour" style="ellipse;whiteSpace=wrap;html=1;" parent="1" vertex="1">
                    <mxGeometry x="1140" y="370" width="120" height="80" as="geometry"/>
                </mxCell>
                <mxCell id="9Ke1NxLbtCCt8Ny00CKA-17" style="edgeStyle=orthogonalEdgeStyle;rounded=0;orthogonalLoop=1;jettySize=auto;html=1;exitX=0;exitY=0.5;exitDx=0;exitDy=0;endArrow=none;endFill=0;" parent="1" source="9Ke1NxLbtCCt8Ny00CKA-7" target="9Ke1NxLbtCCt8Ny00CKA-3" edge="1">
                    <mxGeometry relative="1" as="geometry"/>
                </mxCell>
                <mxCell id="9Ke1NxLbtCCt8Ny00CKA-7" value="rating" style="ellipse;whiteSpace=wrap;html=1;" parent="1" vertex="1">
                    <mxGeometry x="1150" y="530" width="120" height="80" as="geometry"/>
                </mxCell>
                <mxCell id="9Ke1NxLbtCCt8Ny00CKA-8" value="email" style="ellipse;whiteSpace=wrap;html=1;" parent="1" vertex="1">
                    <mxGeometry x="290" y="470" width="120" height="80" as="geometry"/>
                </mxCell>
                <mxCell id="9Ke1NxLbtCCt8Ny00CKA-13" style="edgeStyle=orthogonalEdgeStyle;rounded=0;orthogonalLoop=1;jettySize=auto;html=1;exitX=1;exitY=1;exitDx=0;exitDy=0;entryX=0;entryY=0.25;entryDx=0;entryDy=0;endArrow=none;endFill=0;" parent="1" source="9Ke1NxLbtCCt8Ny00CKA-9" target="9Ke1NxLbtCCt8Ny00CKA-2" edge="1">
                    <mxGeometry relative="1" as="geometry"/>
                </mxCell>
                <mxCell id="9Ke1NxLbtCCt8Ny00CKA-9" value="flavour" style="ellipse;whiteSpace=wrap;html=1;" parent="1" vertex="1">
                    <mxGeometry x="310" y="330" width="120" height="80" as="geometry"/>
                </mxCell>
                <mxCell id="9Ke1NxLbtCCt8Ny00CKA-10" value="N" style="endArrow=none;html=1;rounded=0;exitX=1;exitY=0.5;exitDx=0;exitDy=0;entryX=0;entryY=0.5;entryDx=0;entryDy=0;" parent="1" source="9Ke1NxLbtCCt8Ny00CKA-2" target="9Ke1NxLbtCCt8Ny00CKA-1" edge="1">
                    <mxGeometry width="50" height="50" relative="1" as="geometry">
                        <mxPoint x="630" y="510" as="sourcePoint"/>
                        <mxPoint x="680" y="460" as="targetPoint"/>
                    </mxGeometry>
                </mxCell>
            </root>
        </mxGraphModel>
    </diagram>
</mxfile>